<svg xmlns="http://www.w3.org/2000/svg" viewBox="0 0 24.86 11.19"><defs><style>.cls-1{fill:#231f20;}.cls-2{fill:#fff;}.cls-3{fill:#ed1c24;}</style></defs><g id="Layer_2" data-name="Layer 2"><g id="Layer_1-2" data-name="Layer 1"><rect class="cls-1" x="13.69" y="4.95" width="0.6" height="3.47" transform="translate(3.52 -4.75) rotate(22)"/><rect class="cls-1" x="14.06" y="4.96" width="1.2" height="0.12" transform="translate(2.95 -5.12) rotate(22)"/><polyline class="cls-1" points="13.06 8.18 13.23 8.55 13.62 8.4"/><rect class="cls-2" x="13.83" y="4.89" width="0.02" height="3.47" transform="translate(3.49 -4.7) rotate(22)"/><rect class="cls-1" x="14.69" y="4.18" width="0.3" height="0.82" transform="translate(2.8 -5.22) rotate(22)"/><path class="cls-1" d="M23.19,10.25a5.12,5.12,0,0,1-4.13-.38c-.8-.45-.71-.61-1.81-1.62a7.75,7.75,0,0,0-3.66-2.09,5.56,5.56,0,0,0-4.36,1.2c-1.58,1.11-4.06,3.16-5.7.91C2.26,6.53,2.2,5.22.94,4.68A4,4,0,0,0,0,4.43s.14.05.31.13a3.45,3.45,0,0,1,.5.33c.44.37,1.55,3,2.27,4a4.81,4.81,0,0,0,4.62,1.5c1.8-.46,3-2,4.68-2.74a3.65,3.65,0,0,1,3.8.43c.67.54,1.22,1.24,1.9,1.78A4.88,4.88,0,0,0,22.57,11a3.05,3.05,0,0,0,1.06-.58,7.12,7.12,0,0,0,.6-.58A3.47,3.47,0,0,0,24.86,9,6.87,6.87,0,0,1,23.19,10.25Z"/><path class="cls-3" d="M16.62,8.27a3,3,0,0,0-1.17-.79,4.46,4.46,0,0,0-2.75-.16,4.64,4.64,0,0,0-1.18.53,4.26,4.26,0,0,0-.54.41l-.62.6c-.18.18.36.49.44.55a3.92,3.92,0,0,0,.68.43.89.89,0,0,0,.51.07,1.16,1.16,0,0,0,.5-.38A2.79,2.79,0,0,1,13,9.11a3.87,3.87,0,0,1,1.11-.56,4.12,4.12,0,0,1,1.21-.18,2.32,2.32,0,0,1,.59.05,2.26,2.26,0,0,1,.53.14s.28.11.34,0S16.65,8.31,16.62,8.27Z"/><circle class="cls-3" cx="16.31" cy="0.93" r="0.93"/></g></g></svg>
