<svg xmlns="http://www.w3.org/2000/svg" version="1.1" xmlns:xlink="http://www.w3.org/1999/xlink" width="1000" height="1000"><style>
    #light-icon {
      display: inline;
    }
    #dark-icon {
      display: none;
    }

    @media (prefers-color-scheme: dark) {
      #light-icon {
        display: none;
      }
      #dark-icon {
        display: inline;
      }
    }
  </style><g id="light-icon"><svg xmlns="http://www.w3.org/2000/svg" version="1.1" xmlns:xlink="http://www.w3.org/1999/xlink" width="1000" height="1000"><g><g transform="matrix(32.372936225315634,0,0,32.372936225315634,0,0)"><svg xmlns="http://www.w3.org/2000/svg" version="1.1" xmlns:xlink="http://www.w3.org/1999/xlink" width="30.89" height="30.89"><svg xmlns="http://www.w3.org/2000/svg" viewBox="0 0 30.89 30.89"><defs><style>.cls-1{fill:#231f20;}.cls-2{fill:#fff;}.cls-3{fill:#ed1c24;}.cls-4{fill:none;stroke:#231f20;stroke-miterlimit:10;stroke-width:0.5px;}</style></defs><g id="Layer_2" data-name="Layer 2"><g id="Layer_1-2" data-name="Layer 1"><rect class="cls-1" x="16.71" y="14.13" width="0.6" height="3.47" transform="translate(7.18 -5.22) rotate(22)"></rect><rect class="cls-1" x="17.07" y="14.14" width="1.2" height="0.12" transform="translate(6.61 -5.59) rotate(22)"></rect><polyline class="cls-1" points="16.08 17.36 16.25 17.73 16.63 17.58"></polyline><rect class="cls-2" x="16.85" y="14.07" width="0.02" height="3.47" transform="translate(7.15 -5.17) rotate(22)"></rect><rect class="cls-1" x="17.7" y="13.35" width="0.3" height="0.82" transform="translate(6.46 -5.69) rotate(22)"></rect><path class="cls-1" d="M26.21,19.42a5.13,5.13,0,0,1-4.13-.37c-.8-.45-.71-.62-1.81-1.63a7.78,7.78,0,0,0-3.66-2.08,5.5,5.5,0,0,0-4.37,1.2c-1.58,1.11-4.05,3.16-5.69.91C5.28,15.71,5.22,14.39,4,13.86A4.24,4.24,0,0,0,3,13.6s.13.05.31.14a2.67,2.67,0,0,1,.5.33c.44.37,1.54,3,2.26,3.95a4.85,4.85,0,0,0,4.63,1.5c1.8-.46,3-2,4.68-2.74a3.65,3.65,0,0,1,3.8.42c.67.55,1.21,1.24,1.9,1.78a4.86,4.86,0,0,0,4.48,1.21,3,3,0,0,0,1.07-.58,3.91,3.91,0,0,0,.59-.58,3.22,3.22,0,0,0,.63-.84A6.76,6.76,0,0,1,26.21,19.42Z"></path><path class="cls-3" d="M19.64,17.45a3.14,3.14,0,0,0-1.17-.8,4.46,4.46,0,0,0-2.75-.15,4.16,4.16,0,0,0-1.18.52,3.71,3.71,0,0,0-.54.42c-.16.14-.47.45-.62.6s.36.49.43.54a4.15,4.15,0,0,0,.68.44.93.93,0,0,0,.52.07,1.23,1.23,0,0,0,.49-.38,4,4,0,0,1,.49-.43,3.89,3.89,0,0,1,1.12-.55,4.13,4.13,0,0,1,1.21-.19,3.92,3.92,0,0,1,.59.05,3.11,3.11,0,0,1,.53.14s.28.11.34,0S19.67,17.49,19.64,17.45Z"></path><circle class="cls-3" cx="19.33" cy="10.11" r="0.93"></circle><circle class="cls-4" cx="15.45" cy="15.45" r="15.2"></circle></g></g></svg></svg></g></g></svg></g><g id="dark-icon"><svg xmlns="http://www.w3.org/2000/svg" version="1.1" xmlns:xlink="http://www.w3.org/1999/xlink" width="1000" height="1000"><g clip-path="url(#SvgjsClipPath1111)"><rect width="1000" height="1000" fill="#ffffff"></rect><g transform="matrix(32.372936225315634,0,0,32.372936225315634,0,0)"><svg xmlns="http://www.w3.org/2000/svg" version="1.1" xmlns:xlink="http://www.w3.org/1999/xlink" width="30.89" height="30.89"><svg xmlns="http://www.w3.org/2000/svg" viewBox="0 0 30.89 30.89"><defs><style>.cls-1{fill:#231f20;}.cls-2{fill:#fff;}.cls-3{fill:#ed1c24;}.cls-4{fill:none;stroke:#231f20;stroke-miterlimit:10;stroke-width:0.5px;}</style><clipPath id="SvgjsClipPath1111"><rect width="1000" height="1000" x="0" y="0" rx="500" ry="500"></rect></clipPath></defs><g id="Layer_2" data-name="Layer 2"><g id="Layer_1-2" data-name="Layer 1"><rect class="cls-1" x="16.71" y="14.13" width="0.6" height="3.47" transform="translate(7.18 -5.22) rotate(22)"></rect><rect class="cls-1" x="17.07" y="14.14" width="1.2" height="0.12" transform="translate(6.61 -5.59) rotate(22)"></rect><polyline class="cls-1" points="16.08 17.36 16.25 17.73 16.63 17.58"></polyline><rect class="cls-2" x="16.85" y="14.07" width="0.02" height="3.47" transform="translate(7.15 -5.17) rotate(22)"></rect><rect class="cls-1" x="17.7" y="13.35" width="0.3" height="0.82" transform="translate(6.46 -5.69) rotate(22)"></rect><path class="cls-1" d="M26.21,19.42a5.13,5.13,0,0,1-4.13-.37c-.8-.45-.71-.62-1.81-1.63a7.78,7.78,0,0,0-3.66-2.08,5.5,5.5,0,0,0-4.37,1.2c-1.58,1.11-4.05,3.16-5.69.91C5.28,15.71,5.22,14.39,4,13.86A4.24,4.24,0,0,0,3,13.6s.13.05.31.14a2.67,2.67,0,0,1,.5.33c.44.37,1.54,3,2.26,3.95a4.85,4.85,0,0,0,4.63,1.5c1.8-.46,3-2,4.68-2.74a3.65,3.65,0,0,1,3.8.42c.67.55,1.21,1.24,1.9,1.78a4.86,4.86,0,0,0,4.48,1.21,3,3,0,0,0,1.07-.58,3.91,3.91,0,0,0,.59-.58,3.22,3.22,0,0,0,.63-.84A6.76,6.76,0,0,1,26.21,19.42Z"></path><path class="cls-3" d="M19.64,17.45a3.14,3.14,0,0,0-1.17-.8,4.46,4.46,0,0,0-2.75-.15,4.16,4.16,0,0,0-1.18.52,3.71,3.71,0,0,0-.54.42c-.16.14-.47.45-.62.6s.36.49.43.54a4.15,4.15,0,0,0,.68.44.93.93,0,0,0,.52.07,1.23,1.23,0,0,0,.49-.38,4,4,0,0,1,.49-.43,3.89,3.89,0,0,1,1.12-.55,4.13,4.13,0,0,1,1.21-.19,3.92,3.92,0,0,1,.59.05,3.11,3.11,0,0,1,.53.14s.28.11.34,0S19.67,17.49,19.64,17.45Z"></path><circle class="cls-3" cx="19.33" cy="10.11" r="0.93"></circle><circle class="cls-4" cx="15.45" cy="15.45" r="15.2"></circle></g></g></svg></svg></g></g></svg></g></svg>