<svg xmlns="http://www.w3.org/2000/svg" viewBox="0 0 54.25 32.75"><defs><style>.cls-1,.cls-3{fill:#231f20;}.cls-2{fill:#fff;}.cls-3{font-size:12px;font-family:UncialAntiqua-Regular, Uncial Antiqua;}.cls-4{fill:#ed1c24;}</style></defs><g id="Layer_2" data-name="Layer 2"><g id="Layer_1-2" data-name="Layer 1"><rect class="cls-1" x="29.24" y="11.86" width="0.6" height="3.47" transform="translate(7.24 -10.08) rotate(22)"/><rect class="cls-1" x="29.61" y="11.87" width="1.2" height="0.12" transform="translate(6.67 -10.45) rotate(22)"/><polyline class="cls-1" points="28.61 15.09 28.79 15.46 29.17 15.31"/><rect class="cls-2" x="29.38" y="11.8" width="0.02" height="3.47" transform="translate(7.21 -10.03) rotate(22)"/><rect class="cls-1" x="30.24" y="11.09" width="0.3" height="0.82" transform="translate(6.52 -10.55) rotate(22)"/><text class="cls-3" transform="translate(0 11.39)">Sam Hill</text><path class="cls-1" d="M52.6,16.54c-2.27,1.38-4-1.28-5.73-2.42a5,5,0,0,0-4.34-1c-1.75.54-3,2-4.53,2.93-.9.55-2.3,1.2-3.38.72a7.72,7.72,0,0,1-1.81-1.62,7.8,7.8,0,0,0-3.66-2.09,5.58,5.58,0,0,0-4.37,1.2c-1.58,1.11-4.06,3.16-5.7.91-.91-1.25-1.21-2.93-2.54-3.74-.39-.23-2.14-.28-.91,0,1.53.29,1.59,3.09,3,4.36a5.22,5.22,0,0,0,4.63,1.5c1.79-.46,3-2,4.67-2.74a3.65,3.65,0,0,1,3.8.43c.68.54,1.22,1.24,1.9,1.78a4.88,4.88,0,0,0,4.49,1.21c1.9-.59,3.2-2.21,4.9-3.15a3.5,3.5,0,0,1,4.46.47,21.91,21.91,0,0,0,2.32,1.88c1.35.86,3,1.44,4.45.54C54.34,17.61,53.06,16.26,52.6,16.54Z"/><path class="cls-4" d="M32.17,15.18a3.14,3.14,0,0,0-1.17-.8,4.54,4.54,0,0,0-2.75-.15,4.8,4.8,0,0,0-1.18.53,4.26,4.26,0,0,0-.54.41l-.62.6c-.18.18.37.49.44.55a4.34,4.34,0,0,0,.68.43.89.89,0,0,0,.51.07,1.16,1.16,0,0,0,.5-.38,2.79,2.79,0,0,1,.49-.42,3.87,3.87,0,0,1,1.11-.56,4.12,4.12,0,0,1,1.21-.18,2.32,2.32,0,0,1,.59.05,2.49,2.49,0,0,1,.54.14s.28.11.33,0S32.21,15.22,32.17,15.18Z"/><path class="cls-4" d="M47.39,15.06a3.22,3.22,0,0,0-1.18-.7,4.81,4.81,0,0,0-5.09,1.7c-.15.2.57.68.69.76a2.94,2.94,0,0,0,.63.34c.08,0,.27.11.33,0a4.5,4.5,0,0,1,4.73-1.64c.1,0,.19,0,.19-.1S47.46,15.12,47.39,15.06Z"/><circle class="cls-4" cx="44.23" cy="3.54" r="0.93"/><text class="cls-3" transform="translate(0.61 28.78) scale(1.03 1)">Studios</text></g></g></svg>